<svg xmlns="http://www.w3.org/2000/svg" viewBox="0 0 64 64" role="img" aria-label="CP monogram">
  <rect width="64" height="64" rx="14" fill="#f4f1ea"/>
  <path d="M33.7 43.3c-2.3 1.6-5.3 2.5-8.6 2.5-8.2 0-14.2-5.9-14.2-13.8 0-8 6.1-13.9 14.4-13.9 3.3 0 6.2.8 8.4 2.4l-2.1 3.3c-1.7-1.1-3.7-1.7-6.1-1.7-5.8 0-10 4.2-10 9.9 0 5.6 4.2 9.8 9.9 9.8 2.5 0 4.5-.6 6.2-1.8l2.1 3.3Z" fill="#252320"/>
  <path d="M38.6 18.6h6.9c5 0 8.1 2.8 8.1 7.2 0 4.5-3.2 7.4-8.2 7.4h-2.5v11.9h-4.3V18.6Zm6.5 10.8c2.7 0 4.2-1.3 4.2-3.5s-1.5-3.5-4.1-3.5h-2.3v7h2.2Z" fill="#8b6f47"/>
</svg>
